<svg width="40" height="40" viewBox="0 0 40 40" fill="none" xmlns="http://www.w3.org/2000/svg">
<path d="M18.3333 3.62498C16.75 4.24998 13.3333 8.45831 13.3333 9.79165C13.3333 9.91665 14.7917 9.29165 16.5833 8.37498C18.375 7.41665 20 6.66665 20.25 6.66665C20.7917 6.66665 22.5 8.45831 22.5 8.99998C22.4583 9.20831 20.625 10.25 18.375 11.3333C11.2917 14.7083 5 21.6666 5 26.125C5 29.4583 7.75 31.625 11.9583 31.6666C13.6667 31.6666 14.1667 31.8333 14.3333 32.4166C14.5 32.8333 15.3333 33.9166 16.2917 34.8333C17.75 36.2916 18.1667 36.4583 20 36.4583C21.75 36.4583 22.25 36.25 23.5833 35C25.375 33.25 26.9167 30.25 27.5417 27.0833C27.9167 25.0833 28.3333 24.4166 30.25 22.5C32.8333 19.9166 35 15.9583 35 13.875C35 11.625 33.9167 10.0416 31.7917 9.08331C30.7917 8.62498 29.8333 8.33331 29.75 8.41665C29.5 8.70831 30.8333 12.4583 31.2917 12.75C32.625 13.5833 30.2917 18.0416 26.875 21.2083C25.5417 22.375 23.2917 24.0416 21.8333 24.9166C19.125 26.5 18.75 27.1666 19.5833 28.7916C20.0417 29.5833 20.0417 29.5833 21.7083 28.7083C22.6667 28.25 23.5 27.9583 23.625 28.0833C24.375 28.7916 21.25 33.3333 20.0417 33.3333C17.5 33.3333 15 26.625 15 19.6666V17.0833L17.25 15.625C19.125 14.4583 23.25 12.5 23.9583 12.5C24.125 12.5 24.375 13.75 24.8333 16.5833L25.0833 18.4166L26.5417 17C27.8333 15.75 27.9583 15.4583 27.75 13.9166C27.0833 8.70831 23.7083 3.83332 20.625 3.54165C19.7083 3.41665 18.6667 3.45832 18.3333 3.62498ZM12.4583 27.7916C12.5 28.5833 10.375 28.4583 9.20833 27.6666C7.91667 26.75 8.20833 24.875 10.0833 22.2083L11.4583 20.2083L11.9167 23.75C12.2083 25.7083 12.4583 27.5416 12.4583 27.7916Z" fill="black"/>
</svg>
