<svg width="30" height="30" viewBox="0 0 30 30" fill="none" xmlns="http://www.w3.org/2000/svg">
<path d="M11.6875 21.1C11.6875 21.1875 11.6 21.25 11.475 21.25C11.35 21.25 11.25 21.25 11.25 21.1C11.25 20.95 11.35 20.95 11.4625 20.95C11.575 20.95 11.6875 21.0125 11.6875 21.1ZM10.4375 20.9125C10.4375 21 10.4375 21.1 10.6125 21.125C10.6573 21.1465 10.7088 21.1494 10.7556 21.133C10.8025 21.1167 10.8409 21.0823 10.8625 21.0375C10.8625 20.95 10.8625 20.8625 10.6875 20.825C10.5125 20.7875 10.4625 20.825 10.4375 20.9125ZM12.2125 20.85C12.1 20.85 12.025 20.95 12.0375 21.05C12.05 21.15 12.15 21.1875 12.275 21.1625C12.4 21.1375 12.4625 21.05 12.45 20.9625C12.4375 20.875 12.3375 20.8375 12.2125 20.85ZM14.875 5.00005C13.5567 4.98764 12.2495 5.24169 11.0318 5.74695C9.81415 6.25222 8.71109 6.99828 7.78884 7.94037C6.8666 8.88245 6.14419 10.0012 5.66496 11.2293C5.18574 12.4575 4.95956 13.7698 5.00004 15.0875C4.96514 17.2462 5.60532 19.3618 6.83116 21.1389C8.057 22.916 9.80727 24.2659 11.8375 25C12.35 25.0875 12.5375 24.7625 12.5375 24.5C12.5375 24.2375 12.5375 22.825 12.5375 22C12.5375 22 9.71254 22.625 9.11254 20.75C9.11254 20.75 8.66254 19.5 8.00004 19.2375C8.00004 19.2375 7.07504 18.5875 8.06254 18.6C8.38596 18.6437 8.69466 18.7625 8.96385 18.947C9.23304 19.1315 9.45521 19.3767 9.61254 19.6625C9.74332 19.9189 9.92512 20.1459 10.1468 20.3294C10.3684 20.513 10.6252 20.6494 10.9015 20.7302C11.1777 20.8109 11.4675 20.8344 11.7532 20.7992C12.0388 20.7639 12.3142 20.6705 12.5625 20.525C12.6099 20.0032 12.8349 19.5134 13.2 19.1375C10.95 18.875 8.67504 18.55 8.67504 14.5625C8.65114 14.112 8.72351 13.6617 8.88731 13.2414C9.05112 12.8212 9.30261 12.4405 9.62504 12.1251C9.32084 11.21 9.35634 10.2161 9.72504 9.32505C10.575 9.05005 12.5125 10.4376 12.5125 10.4376C14.1677 9.97072 15.9199 9.97072 17.575 10.4376C17.575 10.4376 19.5125 9.05005 20.3625 9.32505C20.7393 10.2143 20.7747 11.2112 20.4625 12.1251C20.7964 12.4362 21.0611 12.8139 21.2399 13.2338C21.4185 13.6537 21.5071 14.1063 21.5 14.5625C21.5 18.5625 19.125 18.875 16.875 19.1375C17.1011 19.3912 17.2732 19.6883 17.3807 20.0107C17.4881 20.333 17.5287 20.6739 17.5 21.0125C17.5 22.4125 17.5 24.1375 17.5 24.475C17.4992 24.5594 17.5187 24.6428 17.557 24.718C17.5954 24.7933 17.6511 24.8583 17.7199 24.9073C17.7885 24.9564 17.8681 24.9882 17.9516 24.9999C18.0352 25.0118 18.1205 25.0032 18.2 24.975C20.2266 24.2473 21.9732 22.9013 23.1934 21.1271C24.4136 19.353 25.0455 17.2403 25 15.0875C25.0117 13.7564 24.7576 12.4363 24.2525 11.2047C23.7474 9.97303 23.0014 8.85464 22.0584 7.91509C21.1154 6.97554 19.9941 6.23373 18.7606 5.73317C17.5271 5.2326 16.2061 4.98337 14.875 5.00005ZM8.92504 19.2625C8.92504 19.2625 8.92504 19.4 8.92504 19.475C8.93897 19.489 8.95552 19.5002 8.97376 19.5077C8.992 19.5153 9.01154 19.5192 9.03129 19.5192C9.05102 19.5192 9.07057 19.5153 9.08881 19.5077C9.10704 19.5002 9.1236 19.489 9.13754 19.475C9.13754 19.475 9.13754 19.3375 9.13754 19.25C9.13754 19.1625 8.97504 19.2125 8.92504 19.2625ZM8.48754 18.925C8.48754 18.925 8.48754 19.05 8.57504 19.0875C8.58557 19.1007 8.59891 19.1112 8.61405 19.1184C8.62919 19.1255 8.64576 19.1294 8.66254 19.1294C8.67931 19.1294 8.69587 19.1255 8.71101 19.1184C8.72616 19.1112 8.73949 19.1007 8.75004 19.0875C8.75004 19.0875 8.75004 18.9625 8.66254 18.925C8.57504 18.8875 8.51254 18.8875 8.48754 18.925ZM9.73754 20.4C9.73754 20.4 9.73754 20.575 9.73754 20.6625C9.73754 20.75 9.95004 20.7625 10 20.6625C10.05 20.5625 10 20.4875 10 20.4C10 20.3125 9.83754 20.3375 9.78754 20.4H9.73754ZM9.27504 19.7875C9.27504 19.7875 9.27504 19.9375 9.27504 20.0375C9.27504 20.1375 9.45004 20.175 9.51254 20.1375C9.54419 20.1012 9.56162 20.0545 9.56162 20.0063C9.56162 19.958 9.54419 19.9114 9.51254 19.875C9.45004 19.775 9.35004 19.7375 9.27504 19.7875Z" fill="black"/>
</svg>
