<svg width="34" height="27" viewBox="0 0 34 27" fill="none" xmlns="http://www.w3.org/2000/svg">
<path d="M29.35 9.3L18.2 5.25C17.7 5.05 17.1 5 16.75 5C16.35 5 15.8 5.05 15.3 5.25L4.15 9.3C3.1 9.7 3 10.4 3 10.7C3 11 3.1 11.7 4.15 12.1L4.65 12.25V16.4C4.65 17 5.1 17.45 5.7 17.45C6.3 17.45 6.75 17 6.75 16.4V13L8.7 13.7V18.4C8.7 20.45 13.5 21.45 16.75 21.45C20 21.45 24.8 20.5 24.8 18.4V13.75L29.35 12.1C30.4 11.75 30.5 11 30.5 10.7C30.5 10.4 30.4 9.7 29.35 9.3ZM22.75 18.15C22.15 18.55 19.9 19.35 16.8 19.35C13.7 19.35 11.4 18.55 10.85 18.15V14.5L15.35 16.15C15.85 16.35 16.45 16.4 16.8 16.4C17.15 16.4 17.75 16.35 18.25 16.15L22.75 14.5V18.15ZM17.5 14.15C17.15 14.3 16.4 14.3 16.05 14.15L6.5 10.7L16 7.25C16.35 7.1 17.1 7.1 17.45 7.25L27 10.7L17.5 14.15Z" fill="black"/>
</svg>
