<svg width="30" height="30" viewBox="0 0 30 30" fill="none" xmlns="http://www.w3.org/2000/svg">
<path fill-rule="evenodd" clip-rule="evenodd" d="M25 25H21V18.001C21 16.081 20.153 15.0098 18.634 15.0098C16.981 15.0098 16 16.126 16 18.001V25H12V12H16V13.4619C16 13.4619 17.255 11.2598 20.083 11.2598C22.912 11.2598 25 12.9861 25 16.5581V25ZM7.442 9.9209C6.093 9.9209 5 8.81896 5 7.45996C5 6.10196 6.093 5 7.442 5C8.79 5 9.883 6.10196 9.883 7.45996C9.884 8.81896 8.79 9.9209 7.442 9.9209ZM5 25H10V12H5V25Z" fill="black"/>
</svg>
